<?xml version="1.0" encoding="UTF-8"?>
<svg width="400px" height="114px" viewBox="0 0 400 114" version="1.1" xmlns="http://www.w3.org/2000/svg" xmlns:xlink="http://www.w3.org/1999/xlink">
    <title>Logo</title>
    <g id="Symbols" stroke="none" stroke-width="1" fill="none" fill-rule="evenodd">
        <g id="Logo">
            <polygon id="Fill-1" fill="#AF272F" points="25.7649075 58.5299382 59.5638299 58.5299382 59.5638299 24.7234401 25.7649075 24.7234401"></polygon>
            <polygon id="Fill-2" fill="#333F48" points="0 0 0 94.3135008 17.338851 94.3135008 17.338851 16.300982 67.9917804 16.300982 67.9917804 58.5297488 85.3306313 58.5297488 85.3306313 0"></polygon>
            <path d="M32.0572722,75.562542 L32.0572722,88.0037121 L51.0419409,88.0037121 C56.9415062,88.0037121 57.4680164,84.2063996 57.4680164,81.4602134 C57.4680164,78.1306995 55.3051581,75.562542 51.0419409,75.562542 L32.0572722,75.562542 Z M51.0419409,69.2538896 C57.6422572,69.2538896 63.7766688,73.1667314 63.7766688,81.4015019 C63.7766688,90.6911866 57.7596803,94.3123645 51.0419409,94.3123645 L32.0572722,94.3123645 L32.0572722,113.064081 L25.7486198,113.064081 L25.7486198,69.2538896 L51.0419409,69.2538896 Z" id="Fill-3" fill="#333F48"></path>
            <path d="M108.429087,91.1597428 C108.429087,82.1049043 101.184837,74.6277024 91.2550071,74.6277024 C81.3232829,74.6277024 74.0809273,82.1049043 74.0809273,91.1597428 C74.0809273,100.210793 81.3232829,107.689889 91.2550071,107.689889 C101.184837,107.689889 108.429087,100.210793 108.429087,91.1597428 M67.7722749,91.1597428 C67.7722749,77.4326001 78.6945199,68.3171561 91.2550071,68.3171561 C103.8136,68.3171561 114.737739,77.3738885 114.737739,91.1597428 C114.737739,104.886886 103.8136,113.998542 91.2550071,113.998542 C78.6945199,113.998542 67.7722749,104.945597 67.7722749,91.1597428" id="Fill-5" fill="#333F48"></path>
            <polygon id="Fill-8" fill="#333F48" points="121.258511 69.2538896 127.569057 69.2538896 127.569057 106.755428 154.148351 106.755428 154.148351 113.064081 121.258511 113.064081"></polygon>
            <path d="M163.898448,100.85681 C166.818875,102.84164 171.082092,107.688185 181.597144,107.688185 C187.496709,107.688185 195.559133,105.587826 195.559133,100.210983 C195.559133,93.0273388 187.322469,93.0273388 181.83199,93.0273388 L175.288492,93.0273388 C169.330215,93.0273388 162.320811,89.7584303 162.320811,81.8115359 C162.320811,72.525639 172.833969,68.3173455 180.896393,68.3173455 C190.767512,68.3173455 197.076164,72.9915436 198.828041,74.2775163 L195.265575,79.3589076 C191.526974,77.1411256 188.432307,74.6278918 181.070634,74.6278918 C175.580155,74.6278918 168.629464,76.6695391 168.629464,81.8115359 C168.629464,85.1978674 171.082092,86.8361095 176.106666,86.8361095 L181.890702,86.8361095 C192.170907,86.8361095 201.867785,89.4061609 201.867785,100.269694 C201.867785,109.441956 192.110302,113.996837 181.188057,113.996837 C167.987424,113.996837 162.144677,107.74879 159.459096,105.118133 L163.898448,100.85681 Z" id="Fill-10" fill="#333F48"></path>
            <polygon id="Fill-12" fill="#333F48" points="209.340821 113.063513 215.649473 113.063513 215.649473 69.2533215 209.340821 69.2533215"></polygon>
            <polygon id="Fill-14" fill="#333F48" points="229.434759 69.2538896 255.487543 102.549029 255.604966 102.549029 255.604966 69.2538896 261.913618 69.2538896 261.913618 113.064081 255.604966 113.064081 229.552182 79.7689416 229.434759 79.7689416 229.434759 113.064081 223.126107 113.064081 223.126107 69.2538896"></polygon>
            <polygon id="Fill-15" fill="#333F48" points="305.254496 69.2538896 305.254496 75.562542 275.697957 75.562542 275.697957 87.0700088 290.59365 87.0700088 290.59365 93.3786612 275.697957 93.3786612 275.697957 106.755428 306.364334 106.755428 306.364334 113.064081 269.389305 113.064081 269.389305 69.2538896"></polygon>
            <polygon id="Fill-16" fill="#333F48" points="313.903088 69.2538896 320.21174 69.2538896 320.21174 106.755428 346.791034 106.755428 346.791034 113.064081 313.903088 113.064081"></polygon>
            <polygon id="Fill-17" fill="#333F48" points="354.265395 69.2538896 360.574048 69.2538896 360.574048 106.755428 387.151447 106.755428 387.151447 113.064081 354.265395 113.064081"></polygon>
            <polygon id="Fill-18" fill="#333F48" points="393.691348 113.063513 400 113.063513 400 69.2533215 393.691348 69.2533215"></polygon>
        </g>
    </g>
</svg>